<svg width="1920" height="1080" viewBox="0 0 1920 1080" fill="none" xmlns="http://www.w3.org/2000/svg">
<g clip-path="url(#clip0_741_547)">
<path d="M690.119 179.337C657.679 182.619 617.948 196.236 586.844 214.959C525.851 251.676 483.811 317.329 473.241 392.707C470.812 410.093 470.812 450.092 473.241 468.451C480.166 521.216 505.803 572.765 542.739 608.63C563.394 628.691 580.89 640.849 606.891 653.493C644.921 671.973 678.333 679.146 725.353 679.146C762.168 679.146 786.589 675.256 818.908 664.192C859.854 650.21 890.958 628.569 925.463 590.029C932.024 582.734 947.333 559.391 952.919 547.963C966.652 520.486 976.493 486.079 978.926 457.144C980.503 438.663 979.892 405.959 977.705 390.276C974.06 364.015 963.982 332.525 951.343 307.602C938.102 281.706 914.41 251.798 894.603 235.871C859.368 207.665 825.105 191.495 781.244 182.255C767.514 179.458 763.019 179.094 733.251 178.729C715.269 178.486 695.829 178.729 690.119 179.337ZM762.411 293.013C778.692 297.268 789.019 301.766 800.927 309.791C820.974 323.165 837.741 342.982 847.583 364.987C857.545 387.236 862.405 416.293 860.218 440.366C857.789 466.383 850.255 490.091 838.835 508.328C826.32 528.388 812.833 541.154 793.15 551.854C755 572.4 704.941 573.98 666.304 555.744C625.967 536.656 602.153 503.586 592.798 453.496C590.246 440.001 590.732 413.254 593.891 399.029C599.115 375.322 604.462 361.948 614.424 346.994C628.883 325.595 642.612 313.559 665.819 302.131C676.754 296.66 684.165 294.228 698.38 291.068C714.418 287.542 745.644 288.515 762.411 293.013Z" fill="white"/>
<path d="M1188.51 183.228C1187.17 186.146 1178.54 204.261 1169.43 223.714C1160.32 243.045 1147.69 269.913 1141.49 283.287C1135.3 296.661 1127.88 312.466 1125.09 318.545C1122.29 324.502 1116.71 336.539 1112.7 345.292C1108.69 353.925 1093.02 387.358 1078.07 419.455C1028.01 526.08 1024.24 533.982 993.015 599.999C989.37 607.658 982.809 621.518 978.562 630.759C974.307 639.998 968.839 651.305 966.534 655.926C964.219 660.545 962.643 665.165 963.007 666.259C963.618 667.84 970.908 668.083 1025.95 668.083H1088.15L1095.57 653.129C1099.58 644.983 1104.92 633.798 1107.47 628.206L1112.09 618.236H1203.7H1295.31L1302.6 633.677C1306.61 642.308 1311.83 653.494 1314.27 658.6L1318.76 668.083H1381.7C1442.21 668.083 1444.63 667.962 1444.63 665.773C1444.63 664.557 1440.98 655.926 1436.61 646.685C1432.24 637.445 1426.53 625.409 1423.98 620.059C1421.43 614.71 1414.62 600.486 1408.79 588.449C1393.36 556.595 1345 455.199 1345 454.592C1345 454.348 1341.6 447.175 1337.59 438.664C1333.46 430.154 1324.11 410.215 1316.82 394.531C1293.61 344.806 1288.39 333.621 1278.18 311.858C1272.71 300.186 1267.25 288.393 1266.02 285.719C1264.81 283.044 1259.96 272.71 1255.22 262.74C1250.48 252.771 1246.59 244.503 1246.59 244.382C1246.59 244.139 1244.15 238.911 1241.24 232.589C1238.32 226.388 1232.62 213.987 1228.48 205.234C1224.35 196.358 1219.73 186.754 1218.28 183.957L1215.61 178.729L1203.21 178.365L1190.82 178L1188.51 183.228ZM1210.14 434.652C1213.66 442.312 1224.23 465.047 1233.58 485.107C1242.94 505.168 1251.81 524.499 1253.39 527.903L1256.18 534.346H1202.24H1148.29L1153.76 522.432C1156.92 515.988 1167.97 492.037 1178.54 469.302C1202.85 416.902 1202 418.604 1202.97 419.698C1203.33 420.306 1206.61 426.993 1210.14 434.652Z" fill="white"/>
<path d="M0 428.574V666.867H58.9274H117.854L118.098 527.903L118.462 389.06L126.725 401.218C134.986 413.376 174.595 473.436 209.466 526.444C219.55 541.763 238.99 571.306 252.719 592.096C266.57 612.765 283.095 638.174 289.656 648.387L301.562 666.867L361.827 666.624L422.211 666.259L422.576 428.209L422.819 190.279H363.892H304.965L304.721 327.298L304.357 464.439L297.796 454.105C291.235 444.014 268.271 408.878 225.746 344.684C214.082 326.934 200.475 306.144 195.372 298.484C190.39 290.825 174.352 266.144 159.651 243.774C145.071 221.403 131.22 200.127 128.912 196.601L124.78 190.279H62.4509H0V428.574Z" fill="white"/>
<path d="M1490.8 430.397V668.083L1549.49 667.84C1595.29 667.597 1608.05 667.11 1608.17 665.895C1608.29 665.165 1608.42 626.382 1608.53 579.696L1608.65 495.077L1630.16 527.174C1641.95 544.802 1658.11 568.875 1666.13 580.547C1674.03 592.218 1690.43 616.777 1702.58 634.892L1724.69 668.083H1797.71C1855.3 668.083 1870.97 667.718 1871.46 666.503C1871.7 665.773 1864.17 654.102 1854.45 640.728C1844.85 627.354 1833.07 610.941 1828.21 604.254C1819.1 591.367 1776.09 532.28 1757.25 506.626C1751.05 498.116 1745.95 490.943 1745.95 490.457C1745.95 489.971 1748.02 489.363 1750.57 488.877C1757.73 487.782 1773.77 482.189 1783.13 477.691C1820.31 459.698 1842.06 432.22 1853.11 389.425C1856.88 374.714 1857.01 373.985 1857.01 345.9C1857.12 318.302 1857.01 316.843 1853.6 303.956C1849.59 288.272 1840.97 269.184 1832.58 257.512C1824.32 245.841 1807.55 229.306 1797.59 222.862C1778.27 210.34 1754.33 200.735 1733.19 196.966C1714.36 193.562 1687.51 192.832 1587.76 192.711H1490.8V430.397ZM1714.6 298.241C1729.3 305.536 1738.3 318.18 1741.33 335.93C1742.55 343.468 1742.55 346.265 1740.85 354.41C1738.66 365.231 1733.31 377.145 1727.61 383.954C1725.54 386.507 1720.44 390.276 1716.31 392.464L1708.89 396.355L1658.84 396.72L1608.65 397.085V345.292V293.5L1657.62 293.864L1706.47 294.229L1714.6 298.241Z" fill="white"/>
<path d="M833.731 806.318L834.095 871.727H851.105H868.116L868.723 841.94C869.33 810.573 869.695 808.384 875.406 805.589C880.63 802.913 885.976 803.521 890.228 807.169L893.631 810.087L894.238 840.968L894.845 871.727H911.858H928.862V834.038V796.348L925.217 789.053C920.725 779.935 913.918 774.586 904.566 772.64C893.023 770.209 881.238 773.613 873.219 781.637L868.723 786.135V763.522V741.03H851.105H833.488L833.731 806.318Z" fill="white"/>
<path d="M1052.19 753.796V766.562H1070.42H1088.64V753.796V741.03H1070.42H1052.19V753.796Z" fill="white"/>
<path d="M1478.66 753.796V766.562H1496.88H1515.11V753.796V741.03H1496.88H1478.66V753.796Z" fill="white"/>
<path d="M1649.97 753.796V766.562H1668.19H1686.42V753.796V741.03H1668.19H1649.97V753.796Z" fill="white"/>
<path d="M1885.19 742.003C1884.1 743.827 1884.71 867.958 1885.92 870.147C1886.89 872.092 1888.95 872.335 1903.3 872.335H1919.7V806.683V741.03H1902.8C1893.45 741.03 1885.55 741.516 1885.19 742.003Z" fill="white"/>
<path d="M758.767 743.461C732.036 747.23 710.045 766.683 703.97 792.092C701.783 801.333 702.026 817.867 704.456 827.35C708.708 843.399 719.401 857.623 733.616 865.891C752.206 876.833 778.935 877.319 799.347 867.35C807.123 863.459 822.554 849.599 822.554 846.317C822.554 844.979 798.254 826.135 796.431 826.135C795.946 826.135 793.272 828.445 790.478 831.241C778.085 843.642 760.71 844.858 749.29 834.037C742.242 827.35 739.448 820.177 739.448 808.505C739.326 800.239 739.813 797.807 742.729 792.336C746.738 784.798 753.42 779.449 761.804 777.503C772.01 775.072 781.972 778.355 790.478 786.865C794.609 790.998 795.094 791.12 797.768 789.539C802.749 786.5 821.338 771.425 821.338 770.452C821.338 767.655 813.077 758.78 806.394 754.403C792.786 745.528 774.318 741.273 758.767 743.461Z" fill="white"/>
<path d="M1344.39 746.136C1344.03 746.987 1343.91 775.68 1344.03 809.722L1344.39 871.727L1372.09 872.092C1404.9 872.456 1417.42 870.511 1432.24 863.095C1473.92 841.941 1474.88 776.41 1433.82 754.525C1419.84 747.109 1411.1 745.65 1376.35 745.042C1350.22 744.434 1344.88 744.678 1344.39 746.136ZM1410.61 782.002C1413.65 783.34 1417.78 786.379 1419.97 788.811C1423.85 793.309 1427.63 803.156 1427.63 809.114C1427.63 814.95 1423.98 824.919 1420.09 829.296C1413.53 836.712 1408.18 838.658 1393.6 838.779L1380.84 838.901L1380.48 810.33C1380.36 794.646 1380.48 781.03 1380.84 780.057C1381.82 777.504 1403.44 778.841 1410.61 782.002Z" fill="white"/>
<path d="M1709.14 750.392C1708.65 750.756 1708.29 756.228 1708.29 762.428V773.735L1703.19 774.1L1697.96 774.464L1697.59 788.689L1697.23 803.035H1702.82H1708.29V825.284C1708.29 852.518 1709.62 858.232 1717.4 865.892C1721.53 869.782 1724.2 871.241 1729.8 872.335C1738.91 874.281 1753.49 873.186 1760.9 870.025L1766.61 867.593V854.341C1766.61 847.047 1766.25 840.725 1765.88 840.36C1765.39 839.995 1764.06 840.117 1762.72 840.846C1761.38 841.576 1757.62 842.426 1754.34 842.791C1749.6 843.278 1747.77 842.913 1745.95 841.332C1743.76 839.387 1743.52 837.442 1743.52 821.029V803.035H1755.06H1766.73L1766.36 788.689C1766.12 778.476 1765.63 774.464 1764.54 774.343C1763.69 774.221 1758.59 774.1 1753.24 773.978L1743.52 773.856V761.699V749.541H1726.75C1717.52 749.541 1709.5 749.906 1709.14 750.392Z" fill="white"/>
<path d="M979.291 773.127C969.933 775.193 964.347 778.111 956.692 785.041C940.527 799.874 935.916 826.985 945.994 847.654C950.004 856.043 961.431 866.499 970.416 870.024C980.02 873.794 1001.89 874.766 1010.87 871.727C1018.53 869.173 1030.07 861.514 1033.6 856.772L1036.39 853.004L1026.68 844.98C1016.59 836.591 1015.13 836.226 1010.87 841.332C1006.02 847.168 993.743 849.234 985.724 845.587C982.808 844.371 979.41 841.454 977.587 838.657L974.425 834.038L978.927 833.186C981.478 832.7 996.058 832.335 1011.37 832.335L1039.19 832.214L1038.46 820.907C1038.09 814.828 1037.48 808.019 1037 806.074C1034.81 795.132 1023.51 781.151 1013.06 776.531C1001.64 771.546 991.32 770.451 979.291 773.127ZM995.447 799.874C1000.55 801.941 1003.35 805.345 1004.31 810.086L1005.17 813.977H989.734C974.306 813.977 974.306 813.977 975.035 811.18C976.375 806.682 979.892 802.548 984.266 800.36C989.251 797.685 990.344 797.685 995.447 799.874Z" fill="white"/>
<path d="M1215.72 773.369C1199.81 777.26 1186.08 788.202 1178.91 802.792C1175.76 809.114 1175.51 810.937 1175.51 823.095C1175.51 835.01 1175.87 837.198 1178.79 843.399C1184.74 856.164 1196.4 866.498 1210.26 871.119C1216.82 873.307 1220.1 873.672 1230.8 873.307C1241.97 872.942 1244.52 872.456 1251.44 869.174C1280.6 855.314 1290.57 821.393 1273.31 794.524C1266.02 783.096 1253.15 775.193 1238.09 772.761C1228.12 771.06 1224.6 771.181 1215.72 773.369ZM1236.38 804.372C1243.79 807.898 1247.2 813.855 1247.2 823.095C1247.2 835.618 1240.14 843.155 1228.73 843.155C1217.31 843.155 1209.53 834.766 1209.53 822.487C1209.53 813.734 1212.81 808.141 1219.86 804.493C1226.54 801.211 1229.82 801.089 1236.38 804.372Z" fill="white"/>
<path d="M1559.21 773.248C1547.18 776.652 1537.09 785.163 1531.26 796.956C1528.1 803.035 1527.86 804.737 1527.86 817.625C1527.86 830.755 1528.1 832.092 1531.63 839.509C1537.7 852.031 1545.11 858.353 1558.12 862.122C1570.99 865.77 1585.94 862.73 1594.44 854.828C1596.14 853.247 1597.85 852.152 1598.08 852.396C1599.18 853.611 1596.63 864.311 1594.44 867.229C1587.76 876.347 1572.93 877.927 1554.59 871.241C1548.64 869.052 1542.81 866.985 1541.71 866.742C1540.26 866.256 1538.55 868.809 1534.66 877.198C1531.87 883.277 1529.8 889.113 1530.17 889.963C1530.9 892.031 1551.31 898.596 1562.13 900.176C1573.91 902 1581.81 901.878 1593.59 899.811C1612.54 896.407 1621.05 890.572 1627.97 876.104L1632.35 866.864V820.664V774.464H1615.34H1598.33L1597.96 778.963L1597.6 783.582L1593.11 779.935C1583.75 772.519 1570.75 769.965 1559.21 773.248ZM1591.29 803.765C1596.14 807.533 1597.6 809.965 1598.45 816.652C1599.18 823.217 1596.39 829.174 1590.43 833.186C1584.96 836.956 1574.64 836.591 1568.92 832.457C1559.69 825.891 1558.96 813.248 1567.47 805.224C1570.02 802.792 1573.42 800.482 1574.88 800.239C1579.99 799.266 1587.39 800.847 1591.29 803.765Z" fill="white"/>
<path d="M1157.65 774.343C1150.61 776.896 1147.08 779.571 1143.19 785.771L1139.67 791.364V783.34C1139.67 778.841 1139.18 774.951 1138.58 774.587C1137.97 774.222 1130.07 774.222 1120.95 774.708L1104.43 775.437L1104.68 823.582L1105.04 871.727H1122.05H1139.06L1139.79 850.451C1140.52 827.959 1141.37 824.068 1146.71 818.476C1151.33 813.613 1156.19 811.303 1163.73 810.452C1167.24 810.087 1170.04 809.358 1170.04 808.749C1170.04 808.263 1170.04 799.996 1170.04 790.27V772.641H1166.15C1163.96 772.763 1160.08 773.492 1157.65 774.343Z" fill="white"/>
<path d="M1806.7 773.49C1800.63 774.463 1785.44 778.84 1784.11 780.056C1783.13 780.907 1783.13 782.731 1784.47 787.594C1787.02 797.807 1789.81 805.466 1790.9 805.466C1791.4 805.466 1794.18 804.615 1797.1 803.642C1800.02 802.548 1806.58 801.333 1811.68 800.968C1823.84 799.995 1831.24 802.913 1833.43 809.721C1834.28 812.152 1834.64 814.341 1834.41 814.584C1834.16 814.828 1830.4 814.22 1826.14 813.247C1809.74 809.357 1792.12 813.004 1782.28 822.487C1775.48 828.93 1773.29 835.374 1774.26 846.195C1775.59 864.31 1787.87 873.915 1808.76 873.428C1817.39 873.185 1823.11 871.24 1831.36 865.769L1834.64 863.58V867.957V872.456L1851.41 872.091L1868.06 871.727L1868.42 841.939C1868.91 801.94 1867.21 793.186 1857.49 784.068C1852.02 778.84 1846.92 776.408 1837.32 774.342C1829.67 772.761 1813.63 772.275 1806.7 773.49ZM1831.97 831.727C1837.56 833.307 1834.41 846.195 1827.35 849.842C1817.88 854.705 1807.92 850.572 1807.92 841.696C1807.92 834.159 1811.93 830.997 1821.52 830.997C1825.78 830.997 1830.4 831.362 1831.97 831.727Z" fill="white"/>
<path d="M1052.67 775.68C1052.43 776.41 1052.31 798.294 1052.43 824.311L1052.79 871.727H1069.81H1086.82V823.096V774.464H1069.92C1059.85 774.464 1052.92 774.951 1052.67 775.68Z" fill="white"/>
<path d="M1495.91 774.829L1478.66 775.193L1478.89 823.461L1479.26 871.727L1496.02 872.092C1508.66 872.335 1512.92 872.092 1513.28 870.876C1513.65 870.025 1513.77 847.898 1513.65 821.879L1513.28 774.464L1495.91 774.829Z" fill="white"/>
<path d="M1661.87 774.707L1651.18 775.193V823.824V872.456L1667.95 872.092L1684.6 871.727L1684.96 822.73L1685.2 773.855L1678.88 774.099C1675.36 774.22 1667.7 774.585 1661.87 774.707Z" fill="white"/>
</g>
<defs>
<clipPath id="clip0_741_547">
<rect width="1920" height="724" fill="white" transform="translate(0 178)"/>
</clipPath>
</defs>
</svg>
